<svg xmlns="http://www.w3.org/2000/svg" width="16" height="16" fill="none" style=""><rect id="backgroundrect" width="100%" height="100%" x="0" y="0" fill="none" stroke="none" data-darkreader-inline-stroke="" style="--darkreader-inline-stroke: none;"/>

<g class="currentLayer" style=""><title>Layer 1</title><path fill="#eb1a1a" fill-opacity="1" stroke="none" stroke-opacity="1" stroke-width="1" stroke-dasharray="none" stroke-linejoin="miter" stroke-linecap="butt" stroke-dashoffset="" fill-rule="nonzero" opacity="1" marker-start="" marker-mid="" marker-end="" d="M4,5.5 C4,5.223756906077348 4.447513812154696,5 5,5 C5.552486187845304,5 6,5.223756906077348 6,5.5 C6,5.776243093922652 5.552486187845304,6 5,6 C4.447513812154696,6 4,5.776243093922652 4,5.5 Z" id="svg_2" data-darkreader-inline-fill="" data-darkreader-inline-stroke="" style="--darkreader-inline-fill: #ed3030; --darkreader-inline-stroke: none;"/><rect fill="#eb1a1a" stroke-dashoffset="" fill-rule="nonzero" id="svg_7" x="2.8979591727256775" y="4.081632651388645" width="10" height="6" style="color: rgb(0, 0, 0); --darkreader-inline-fill: #b81010; --darkreader-inline-color: #e8e6e3;" data-darkreader-inline-fill="" data-darkreader-inline-color="" class=""/><path fill="#eb1a1a" fill-opacity="1" stroke="none" stroke-opacity="1" stroke-width="1" stroke-dasharray="none" stroke-linejoin="miter" stroke-linecap="butt" stroke-dashoffset="" fill-rule="nonzero" opacity="1" marker-start="" marker-mid="" marker-end="" d="M6.530612202931421,9.500000240581109 C6.530612202931421,6.923610447048121 7.188183578630754,4.836734714286401 8.000000091839807,4.836734714286401 C8.811816605048861,4.836734714286401 9.469387980748193,6.923610447048121 9.469387980748193,9.500000240581109 C9.469387980748193,12.076390034114096 8.811816605048861,14.163265766875817 8.000000091839807,14.163265766875817 C7.188183578630754,14.163265766875817 6.530612202931421,12.076390034114096 6.530612202931421,9.500000240581109 z" id="svg_4" data-darkreader-inline-fill="" data-darkreader-inline-stroke="" style="--darkreader-inline-fill: #b81010; --darkreader-inline-stroke: none;" class=""/><path d="M7.99998 15.1099C7.7722 15.1099 7.5526 15.0273 7.38146 14.8774C6.73509 14.3123 6.11193 13.7811 5.56212 13.3126L5.55932 13.3102C3.94738 11.9365 2.55542 10.7502 1.58691 9.58167C0.504272 8.27527 0 7.03662 0 5.68347C0 4.36877 0.450805 3.15588 1.26928 2.26807C2.09753 1.36975 3.234 0.875 4.46972 0.875C5.3933 0.875 6.23912 1.16699 6.98363 1.7428C7.35936 2.03345 7.69994 2.38916 7.99998 2.80408C8.30015 2.38916 8.64061 2.03345 9.01646 1.7428C9.76097 1.16699 10.6068 0.875 11.5304 0.875C12.766 0.875 13.9026 1.36975 14.7308 2.26807C15.5493 3.15588 16 4.36877 16 5.68347C16 7.03662 15.4958 8.27527 14.4132 9.58154C13.4447 10.7502 12.0528 11.9364 10.4411 13.3099C9.89036 13.7792 9.26622 14.3112 8.61839 14.8777C8.44737 15.0273 8.22765 15.1099 7.99998 15.1099ZM4.46972 1.81226C3.49889 1.81226 2.60705 2.19971 1.95825 2.90332C1.2998 3.61755 0.937132 4.60486 0.937132 5.68347C0.937132 6.82153 1.3601 7.83936 2.30847 8.98364C3.22509 10.0897 4.58849 11.2516 6.1671 12.5969L6.17003 12.5994C6.72191 13.0697 7.34752 13.6029 7.99864 14.1722C8.65367 13.6018 9.28026 13.0677 9.83323 12.5967C11.4117 11.2513 12.775 10.0897 13.6916 8.98364C14.6399 7.83936 15.0628 6.82153 15.0628 5.68347C15.0628 4.60486 14.7002 3.61755 14.0417 2.90332C13.393 2.19971 12.5011 1.81226 11.5304 1.81226C10.8192 1.81226 10.1662 2.03833 9.5897 2.48413C9.07591 2.88159 8.718 3.38403 8.50816 3.7356C8.40025 3.91638 8.21031 4.02429 7.99998 4.02429C7.78966 4.02429 7.59972 3.91638 7.49181 3.7356C7.28209 3.38403 6.92418 2.88159 6.41027 2.48413C5.83373 2.03833 5.18078 1.81226 4.46972 1.81226Z" fill="black" fill-opacity="0.75" id="svg_1" data-darkreader-inline-fill="" style="--darkreader-inline-fill: #000000;" class=""/><path fill="#eb1a1a" stroke-dashoffset="" fill-rule="nonzero" marker-start="" marker-mid="" marker-end="" id="svg_10" d="M8.367053704818261,6.4164432098929165 C10.333454477281627,0.7751295183994741 18.037877175949966,6.4164432098929165 8.367053704818261,13.669560813241683 C-1.3037697663134546,6.4164432098929165 6.400652932354885,0.7751295183994741 8.367053704818261,6.4164432098929165 z" style="color: rgb(0, 0, 0); --darkreader-inline-fill: #b81010; --darkreader-inline-color: #e8e6e3;" data-darkreader-inline-fill="" data-darkreader-inline-color=""/><path fill="#eb1a1a" stroke-dashoffset="" fill-rule="nonzero" marker-start="" marker-mid="" marker-end="" id="svg_12" d="M9.32367111572937,11.50557930796378 C9.374156338202132,11.36074465332878 9.571959095103653,11.50557930796378 9.32367111572937,11.691795292494492 C9.075383136355088,11.50557930796378 9.273185893256596,11.36074465332878 9.32367111572937,11.50557930796378 z" style="color: rgb(0, 0, 0); --darkreader-inline-fill: #ed3030; --darkreader-inline-color: #e8e6e3;" data-darkreader-inline-fill="" data-darkreader-inline-color=""/><path fill="#eb1a1a" stroke-dashoffset="" fill-rule="nonzero" marker-start="" marker-mid="" marker-end="" id="svg_14" d="M8.04474,4.25937C11.53816,-2.50146 22.09535,5.48386 7.96311,14.16466C-6.33239,5.0757 4.63296,-2.33818 8.04474,4.25937z" style="color: rgb(0, 0, 0); --darkreader-inline-fill: #b81010; --darkreader-inline-color: #e8e6e3;" data-darkreader-inline-fill="" data-darkreader-inline-color="" class=""/><path fill="#eb1a1a" stroke-dashoffset="" fill-rule="nonzero" marker-start="" marker-mid="" marker-end="" id="svg_16" d="M12.1820734771707,11.802385176708157 C12.36718552963048,11.27132600981531 13.092460620415524,11.802385176708157 12.1820734771707,12.485175534141765 C11.271686333925889,11.802385176708157 11.996961424710932,11.27132600981531 12.1820734771707,11.802385176708157 z" style="color: rgb(0, 0, 0); --darkreader-inline-fill: #ed3030; --darkreader-inline-color: #e8e6e3;" data-darkreader-inline-fill="" data-darkreader-inline-color=""/></g></svg>